<svg height="512" viewBox="0 0 64 64" width="512" xmlns="http://www.w3.org/2000/svg"><g id="Desk"><path d="m61 31v4h-3-52-3v-4h6 34 8 6z" fill="#bddbff"/><path d="m58 35v10h-4-44-4v-10z" fill="#bddbff"/><path d="m58 23-.5 4-.5 4h-6l-1-8z" fill="#bddbff"/><path d="m45 27v2a2.006 2.006 0 0 1 -2 2h-34a2.006 2.006 0 0 1 -2-2v-2z" fill="#bddbff"/><path d="m21.99 19.66a5.94 5.94 0 0 1 -1.99.34 6 6 0 0 1 0-12v6h6a6.013 6.013 0 0 1 -4.01 5.66z" fill="#bddbff"/><g fill="#3d9ae2"><path d="m27 14a6.968 6.968 0 0 0 -1.634-4.487l1.134-1.513h1.5v-2h-2a1 1 0 0 0 -.8.4l-1.329 1.773a7 7 0 1 0 -2.341 12.653l1.613 2.689a1 1 0 0 0 .857.485h2v-2h-1.434l-1.141-1.9a7 7 0 0 0 3.575-6.1zm-3.2-2.4.319-.425a4.966 4.966 0 0 1 .781 1.825h-3.9v-3.9a4.957 4.957 0 0 1 1.662.683l-.462.617zm-1.414 6.766-.529-.881-1.714 1.03.266.444c-.137.011-.269.041-.409.041a5 5 0 0 1 -1-9.9v4.9a1 1 0 0 0 1 1h4.9a5 5 0 0 1 -2.514 3.366z"/><path d="m30 6h4v2h-4z"/><path d="m28 22h4v2h-4z"/><path d="m31 11h2v2h-2z"/><path d="m35 11h4v2h-4z"/><path d="m31 15h8v2h-8z"/><path d="m61 28a1 1 0 0 0 1-1v-4a1 1 0 0 0 -1-1h-11a1 1 0 0 0 -.992 1.124l.859 6.876h-4.051a2.966 2.966 0 0 0 .184-1v-2a1 1 0 0 0 -1-1h-2v-21a3 3 0 0 0 -3-3h-28a3 3 0 0 0 -3 3v21h-2a1 1 0 0 0 -1 1v2a2.966 2.966 0 0 0 .184 1h-3.184a1 1 0 0 0 -1 1v4a1 1 0 0 0 1 1h2v25a1 1 0 0 0 1 1h4a1 1 0 0 0 1-1v-15h42v15a1 1 0 0 0 1 1h4a1 1 0 0 0 1-1v-25h2a1 1 0 0 0 1-1v-4a1 1 0 0 0 -1-1h-2.867l.25-2zm-1-2h-1.367l.25-2h1.117zm-49-21a1 1 0 0 1 1-1h28a1 1 0 0 1 1 1v21h-30zm-3 24v-1h36v1a1 1 0 0 1 -1 1h-34a1 1 0 0 1 -1-1zm1 31h-2v-14h2zm46 0v-14h2v14zm2-16h-50v-8h50zm3-10h-56v-2h56zm-8.117-4-.75-6h5.734l-.75 6z"/><path d="m52 15h1a2 2 0 0 0 2-2v-2h-2v2h-1a2 2 0 0 0 -2 2v3h2z"/><path d="m55 20h2v-3h1a2 2 0 0 0 2-2v-2h-2v2h-1a2 2 0 0 0 -2 2z"/><path d="m29 38h6v2h-6z"/></g></g></svg>