<svg height="35px" viewBox="0 -28 417.3824 417" width="35px" xmlns="http://www.w3.org/2000/svg"><path d="m7.78125 273.257812h409.601562v88.746094h-409.601562zm0 0" fill="#00e7ff"/><path d="m342.289062 286.910156h68.265626v40.960938h-68.265626zm0 0" fill="#fff"/><path d="m410.554688 334.699219h-68.265626c-3.773437 0-6.828124-3.054688-6.828124-6.828125v-40.960938c0-3.773437 3.054687-6.824218 6.828124-6.824218h68.265626c3.773437 0 6.828124 3.050781 6.828124 6.824218v40.960938c0 3.773437-3.054687 6.828125-6.828124 6.828125zm-61.4375-13.65625h54.613281v-27.304688h-54.613281zm0 0" fill="#602f75"/><path d="m342.289062 7.019531h68.265626v40.957031h-68.265626zm0 0" fill="#fff"/><path d="m410.554688 54.804688h-68.265626c-3.773437 0-6.828124-3.054688-6.828124-6.828126v-40.957031c0-3.773437 3.054687-6.828125 6.828124-6.828125h68.265626c3.773437 0 6.828124 3.054688 6.828124 6.828125v40.957031c0 3.773438-3.054687 6.828126-6.828124 6.828126zm-61.4375-13.652344h54.613281v-27.308594h-54.613281zm0 0" fill="#602f75"/><path d="m342.289062 47.976562h68.265626v27.308594h-68.265626zm0 0" fill="#fff"/><path d="m410.554688 82.109375h-68.265626c-3.773437 0-6.828124-3.050781-6.828124-6.824219v-27.308594c0-3.773437 3.054687-6.824218 6.828124-6.824218h68.265626c3.773437 0 6.828124 3.050781 6.828124 6.824218v27.308594c0 3.773438-3.054687 6.824219-6.828124 6.824219zm-61.4375-13.652344h54.613281v-13.652343h-54.613281zm0 0" fill="#602f75"/><path d="m342.289062 75.285156h68.265626v211.625h-68.265626zm0 0" fill="#00e7ff"/><path d="m410.554688 293.738281h-68.265626c-3.773437 0-6.828124-3.054687-6.828124-6.828125v-211.625c0-3.773437 3.054687-6.828125 6.828124-6.828125h68.265626c3.773437 0 6.828124 3.054688 6.828124 6.828125v211.625c0 3.773438-3.054687 6.828125-6.828124 6.828125zm-61.4375-13.652343h54.613281v-197.976563h-54.613281zm0 0" fill="#602f75"/><path d="m274.023438 27.496094h68.265624v184.320312h-68.265624zm0 0" fill="#ea3457"/><path d="m342.289062 218.644531h-68.265624c-3.773438 0-6.828126-3.054687-6.828126-6.828125v-184.320312c0-3.773438 3.054688-6.824219 6.828126-6.824219h68.265624c3.773438 0 6.828126 3.050781 6.828126 6.824219v184.320312c0 3.773438-3.054688 6.828125-6.828126 6.828125zm-61.441406-13.652343h54.613282v-170.667969h-54.613282zm0 0" fill="#602f75"/><path d="m205.753906 27.496094h68.269532v27.308594h-68.269532zm0 0" fill="#fff"/><path d="m274.023438 61.632812h-68.269532c-3.773437 0-6.824218-3.054687-6.824218-6.828124v-27.308594c0-3.773438 3.050781-6.824219 6.824218-6.824219h68.269532c3.773437 0 6.824218 3.050781 6.824218 6.824219v27.308594c0 3.773437-3.050781 6.828124-6.824218 6.828124zm-61.441407-13.65625h54.613281v-13.652343h-54.613281zm0 0" fill="#602f75"/><path d="m205.753906 300.566406h68.269532v27.304688h-68.269532zm0 0" fill="#fff"/><path d="m274.023438 334.699219h-68.269532c-3.773437 0-6.824218-3.054688-6.824218-6.828125v-27.304688c0-3.773437 3.050781-6.828125 6.824218-6.828125h68.269532c3.773437 0 6.824218 3.054688 6.824218 6.828125v27.304688c0 3.773437-3.050781 6.828125-6.824218 6.828125zm-61.441407-13.65625h54.613281v-13.652344h-54.613281zm0 0" fill="#602f75"/><path d="m205.753906 249.042969v51.523437h68.269532v-245.761718h-68.269532v145.632812" fill="#fff"/><path d="m274.023438 307.390625h-68.269532c-3.773437 0-6.824218-3.050781-6.824218-6.824219v-51.523437c0-3.773438 3.050781-6.824219 6.824218-6.824219 3.773438 0 6.828125 3.050781 6.828125 6.824219v44.695312h54.613281v-232.105469h-54.613281v138.804688c0 3.773438-3.054687 6.828125-6.828125 6.828125-3.773437 0-6.824218-3.054687-6.824218-6.828125v-145.632812c0-3.773438 3.050781-6.828126 6.824218-6.828126h68.269532c3.773437 0 6.824218 3.054688 6.824218 6.828126v245.761718c0 3.773438-3.050781 6.824219-6.824218 6.824219zm0 0" fill="#602f75"/><path d="m199.882812 57.671875-61.355468-29.933594-17.144532 35.148438 61.773438 29.070312zm0 0" fill="#ea3457"/><path d="m183.152344 98.785156c-.976563 0-1.960938-.207031-2.902344-.648437l-61.773438-29.074219c-1.652343-.777344-2.925781-2.183594-3.53125-3.914062-.605468-1.71875-.496093-3.617188.300782-5.257813l17.148437-35.148437c.796875-1.625 2.203125-2.871094 3.914063-3.457032 1.710937-.605468 3.585937-.480468 5.214844.320313l61.355468 29.933593c3.386719 1.652344 4.792969 5.738282 3.140625 9.125l-16.722656 34.289063c-1.1875 2.417969-3.613281 3.832031-6.144531 3.832031zm-52.597656-39.125 49.417968 23.25 10.78125-22.097656-49.082031-23.945312zm0 0" fill="#602f75"/><path d="m6.828125 297.699219 61.355469 29.929687 20.222656-41.449218-62.554688-27.472657zm0 0" fill="#ea3457"/><path d="m68.183594 334.457031c-1.027344 0-2.054688-.234375-2.992188-.691406l-61.355468-29.933594c-3.390626-1.65625-4.796876-5.742187-3.144532-9.128906l19.023438-38.992187c1.601562-3.300782 5.511718-4.722657 8.882812-3.261719l62.554688 27.476562c1.699218.75 3.023437 2.160157 3.660156 3.898438.640625 1.746093.539062 3.679687-.273438 5.347656l-20.222656 41.453125c-.796875 1.625-2.203125 2.875-3.914062 3.457031-.71875.253907-1.46875.375-2.21875.375zm-52.222656-39.898437 49.078124 23.945312 14.117188-28.933594-50.042969-21.980468zm0 0" fill="#602f75"/><path d="m121.382812 62.886719-95.53125 195.820312 62.554688 27.472657 94.75-194.222657zm0 0" fill="#ffe600"/><path d="m88.402344 293.003906c-.917969 0-1.851563-.1875-2.742188-.574218l-62.554687-27.472657c-1.699219-.753906-3.019531-2.160156-3.660157-3.898437-.640624-1.746094-.539062-3.679688.273438-5.347656l95.527344-195.820313c1.640625-3.355469 5.667968-4.765625 9.042968-3.1875l61.773438 29.074219c1.652344.78125 2.925781 2.1875 3.53125 3.914062.605469 1.71875.5 3.617188-.300781 5.257813l-94.75 194.222656c-1.179688 2.417969-3.605469 3.832031-6.140625 3.832031zm-53.300782-37.691406 50.042969 21.976562 88.839844-182.105468-49.417969-23.253906zm0 0" fill="#602f75"/><path d="m376.421875 266.429688c-3.773437 0-6.824219-3.050782-6.824219-6.824219v-54.613281c0-3.773438 3.050782-6.828126 6.824219-6.828126s6.828125 3.054688 6.828125 6.828126v54.613281c0 3.773437-3.054688 6.824219-6.828125 6.824219zm0 0" fill="#602f75"/><path d="m274.023438 239.125h68.265624v88.746094h-68.265624zm0 0" fill="#ea3457"/><path d="m342.289062 334.699219h-68.265624c-3.773438 0-6.828126-3.054688-6.828126-6.828125v-88.746094c0-3.773438 3.054688-6.828125 6.828126-6.828125h68.265624c3.773438 0 6.828126 3.054687 6.828126 6.828125v88.746094c0 3.773437-3.054688 6.828125-6.828126 6.828125zm-61.441406-13.65625h54.613282v-75.089844h-54.613282zm0 0" fill="#602f75"/><path d="m274.023438 211.816406h68.265624v27.308594h-68.265624zm0 0" fill="#fff"/><g fill="#602f75"><path d="m342.289062 245.953125h-68.265624c-3.773438 0-6.828126-3.054687-6.828126-6.828125v-27.308594c0-3.773437 3.054688-6.824218 6.828126-6.824218h68.265624c3.773438 0 6.828126 3.050781 6.828126 6.824218v27.308594c0 3.773438-3.054688 6.828125-6.828126 6.828125zm-61.441406-13.65625h54.613282v-13.652344h-54.613282zm0 0"/><path d="m314.980469 82.109375h-13.652344c-3.773437 0-6.824219-3.050781-6.824219-6.824219 0-3.773437 3.050782-6.828125 6.824219-6.828125h13.652344c3.773437 0 6.828125 3.054688 6.828125 6.828125 0 3.773438-3.054688 6.824219-6.828125 6.824219zm0 0"/><path d="m314.980469 109.417969h-13.652344c-3.773437 0-6.824219-3.054688-6.824219-6.828125 0-3.773438 3.050782-6.824219 6.824219-6.824219h13.652344c3.773437 0 6.828125 3.050781 6.828125 6.824219 0 3.773437-3.054688 6.828125-6.828125 6.828125zm0 0"/><path d="m239.890625 166.304688c-3.773437 0-6.828125-3.054688-6.828125-6.828126v-29.578124c0-3.773438 3.054688-6.828126 6.828125-6.828126s6.824219 3.054688 6.824219 6.828126v29.578124c0 3.773438-3.050782 6.828126-6.824219 6.828126zm0 0"/><path d="m239.890625 266.429688c-3.773437 0-6.828125-3.050782-6.828125-6.824219v-59.167969c0-3.773438 3.054688-6.828125 6.828125-6.828125s6.824219 3.054687 6.824219 6.828125v59.167969c0 3.773437-3.050782 6.824219-6.824219 6.824219zm0 0"/><path d="m127.242188 136.722656c-1.023438 0-2.066407-.230468-3.046876-.71875-3.375-1.6875-4.738281-5.785156-3.050781-9.160156l10.238281-20.480469c1.6875-3.367187 5.78125-4.726562 9.160157-3.050781 3.375 1.683594 4.738281 5.785156 3.050781 9.160156l-10.238281 20.476563c-1.195313 2.394531-3.605469 3.773437-6.113281 3.773437zm0 0"/></g></svg>