<?xml version="1.0"?>
<svg xmlns="http://www.w3.org/2000/svg" xmlns:xlink="http://www.w3.org/1999/xlink" version="1.1" id="Capa_1" x="0px" y="0px" viewBox="0 0 512 512" style="enable-background:new 0 0 512 512;" xml:space="preserve" width="512px" height="512px" class=""><g transform="matrix(0.989406, 0, 0, 0.989406, 2.71202, 2.71202)"><path style="fill:#E84DCB" d="M504,496h-48v-18.152c10.536-6.064,16-24.04,16-41.848c0-21.864-8.24-44-24-44s-24,22.136-24,44  c0,17.8,5.464,35.776,16,41.848V496H72v-18.152c10.536-6.064,16-24.04,16-41.848c0-21.864-8.24-44-24-44s-24,22.136-24,44  c0,17.8,5.464,35.776,16,41.848V496H8c-4.424,0-8,3.576-8,8s3.576,8,8,8h496c4.424,0,8-3.576,8-8S508.424,496,504,496z" data-original="#E0E3E7" class="" data-old_color="#E0E3E7"/><path style="fill:#FEF0D9;" d="M280,280h-48v-64c0-8.84,7.16-16,16-16h16c8.84,0,16,7.16,16,16V280z" data-original="#FEF0D9" class=""/><path style="fill:#FFFFFF" d="M372.992,41.744C341.36,15.208,298.728,0,256,0c-40.528,0-80.936,14.392-116.832,41.616  C87.096,81.008,56,143.2,56,208c0,59.368,36.76,137.576,71.168,190.976c45.416,70.488,93.392,112.56,128.336,112.56  C326.704,511.536,456,315.8,456,208C456,143.272,424.976,81.144,372.992,41.744z" data-original="#E65039" class="active-path" data-old_color="#E65039"/><path style="fill:#E622C2" d="M256,48c-83.816,0-152,68.184-152,152s68.184,152,152,152s152-68.184,152-152S339.816,48,256,48z" data-original="#FFFFFF" class="" data-old_color="#FFFFFF"/><g>
	<path style="fill:#FFFFFF" d="M336,272h-16v-80c0-4.424-3.576-8-8-8s-8,3.576-8,8v80h-16v-56c0-13.232-10.768-24-24-24h-16   c-13.232,0-24,10.768-24,24v56h-16v-80c0-4.424-3.576-8-8-8s-8,3.576-8,8v80h-16c-4.424,0-8,3.576-8,8s3.576,8,8,8h24h32h48h32h24   c4.424,0,8-3.576,8-8S340.424,272,336,272z M240,216c0-4.416,3.584-8,8-8h16c4.416,0,8,3.584,8,8v56h-32V216z" data-original="#E65039" class="active-path" data-old_color="#E65039"/>
	<path style="fill:#FFFFFF" d="M340.12,161.144l-80-48c-2.528-1.512-5.704-1.512-8.232,0l-80,48   c-2.408,1.44-3.888,4.04-3.888,6.856v16c0,4.424,3.576,8,8,8s8-3.576,8-8v-11.472l72-43.2l72,43.2V184c0,4.424,3.576,8,8,8   s8-3.576,8-8v-16C344,165.184,342.52,162.584,340.12,161.144z" data-original="#E65039" class="active-path" data-old_color="#E65039"/>
	<path style="fill:#FFFFFF" d="M264,176c4.424,0,8-3.576,8-8s-3.576-8-8-8h-16c-4.424,0-8,3.576-8,8s3.576,8,8,8H264z" data-original="#E65039" class="active-path" data-old_color="#E65039"/>
</g><path style="fill:#E622C2" d="M288,424c0-14.872-10.232-27.288-24-30.864V384c0-4.424-3.576-8-8-8s-8,3.576-8,8v9.136  c-13.768,3.576-24,15.992-24,30.864s10.232,27.288,24,30.864V464c0,4.424,3.576,8,8,8c4.424,0,8-3.576,8-8v-9.136  C277.768,451.288,288,438.872,288,424z" data-original="#FFFFFF" class="" data-old_color="#FFFFFF"/><circle style="fill:#FFFFFF" cx="256" cy="424" r="16" data-original="#E65039" class="active-path" data-old_color="#E65039"/></g> </svg>
