<?xml version="1.0"?>
<svg xmlns="http://www.w3.org/2000/svg" height="512px" viewBox="0 0 64 64" width="512px" class=""><g><g id="Work"><ellipse cx="32" cy="56" fill="#ffcd00" rx="18" ry="5" data-original="#FFCD00" class="" data-old_color="#ffcd00" style="fill:#FFFFFF"/><path d="m53 24c0 7.8-9.5 20.03-15.72 27.21-3.03 3.49-5.28 5.79-5.28 5.79s-2.25-2.3-5.28-5.79c-6.22-7.18-15.72-19.41-15.72-27.21a21 21 0 0 1 42 0z" fill="#006df0" data-original="#006DF0" class="" data-old_color="#006df0" style="fill:#FFFFFF"/><circle cx="32" cy="24" fill="#d1e7f8" r="16" data-original="#D1E7F8" class="" style="fill:#FCDCF6" data-old_color="#d1e7f8"/><path d="m48 24a15.98 15.98 0 0 1 -26.735 11.839q-2.214 1.242-4.533 2.309a122.307 122.307 0 0 0 9.988 13.062c3.03 3.49 5.28 5.79 5.28 5.79s2.25-2.3 5.28-5.79c6.22-7.18 15.72-19.41 15.72-27.21a20.928 20.928 0 0 0 -6.073-14.765q-1.206 2.343-2.592 4.575a15.932 15.932 0 0 1 3.665 10.19z" fill="#005ece" data-original="#005ECE" class="" data-old_color="#005ece" style="fill:#FFFFFF"/><path d="m48 24a15.932 15.932 0 0 0 -3.665-10.19 64.29 64.29 0 0 1 -23.07 22.029 15.98 15.98 0 0 0 26.735-11.839z" fill="#b7cad9" data-original="#B7CAD9" class="" data-old_color="#b7cad9" style="fill:#F09ED1"/><path d="m41 24v8a2.006 2.006 0 0 1 -2 2h-14a2.006 2.006 0 0 1 -2-2v-8z" fill="#a97c50" data-original="#A97C50" class="" style="fill:#D666DC" data-old_color="#a97c50"/><path d="m43 19v5h-22v-5a2.006 2.006 0 0 1 2-2h18a2.006 2.006 0 0 1 2 2z" fill="#754c29" data-original="#754C29" class="" data-old_color="#754c29" style="fill:#9740A0"/><path d="m34 24v2a1 1 0 0 1 -1 1h-2a1 1 0 0 1 -1-1v-3a1 1 0 0 1 1-1h2a1 1 0 0 1 1 1z" fill="#ff9811" data-original="#FF9811" class="active-path" style="fill:#FFFFFF" data-old_color="#ff9811"/><path d="m35 12h-6a2 2 0 0 0 -2 2v3h2v-3h6v3h2v-3a2 2 0 0 0 -2-2z" fill="#603913" data-original="#603913" class="" style="fill:#FFFFFF" data-old_color="#603913"/></g></g> </svg>
